PathFileType	4	(X/Y/Z)	70_1_12_p1_0-239.trc
DataRate	CameraRate	NumFrames	NumMarkers	Units	OrigDataRate	OrigDataStartFrame	OrigNumFrames
59.0	59.0	5	27	m	59.0	180	240
Frame#	Time	RHip			RKnee			RAnkle			RBigToe			RSmallToe			RHeel			LHip			LKnee			LAnkle			LBigToe			LSmallToe			LHeel			Neck			Head			Nose			RShoulder			RElbow			RWrist			RThumb			RIndex			RPinky			LShoulder			LElbow			LWrist			LThumb			LIndex			LPinky			
		X1	Y1	Z1	X2	Y2	Z2	X3	Y3	Z3	X4	Y4	Z4	X5	Y5	Z5	X6	Y6	Z6	X7	Y7	Z7	X8	Y8	Z8	X9	Y9	Z9	X10	Y10	Z10	X11	Y11	Z11	X12	Y12	Z12	X13	Y13	Z13	X14	Y14	Z14	X15	Y15	Z15	X16	Y16	Z16	X17	Y17	Z17	X18	Y18	Z18	X19	Y19	Z19	X20	Y20	Z20	X21	Y21	Z21	X22	Y22	Z22	X23	Y23	Z23	X24	Y24	Z24	X25	Y25	Z25	X26	Y26	Z26	X27	Y27	Z27	
180	3.0508474576271185	0.37168494318509193	0.514693421951486	0.1398244813223288	0.38081199677376043	0.6801175338406215	0.5363192117373824	0.37566691412941927	0.78986996709929	0.9470899345316345	0.33057961909798117	0.65133643851246	1.0163026632283079	0.39460406623825517	0.6425374391870554	1.0088930882352658	0.3586622420864632	0.886221163336201	0.9924946844761364	0.13235726649852225	0.5348443892622593	0.14430835373579068	0.1531032208830752	0.7132980295921139	0.5466202439825534	0.19019307913164604	0.8211297907896153	0.9444372612649811	0.1606120509154741	0.6098688957277049	0.9819430812691505	0.10821930949698384	0.6852488328311489	0.9786837864368013	0.2124068803560496	0.8661054996457987	0.9941794143169934	0.2372851888596964	0.393274087512228	-0.41589120176116057	0.2108623268652139	0.18244278564799044	-0.6614078452020701	0.20435264463416825	0.20401881122843754	-0.4856556441582999	0.40973582147887755	0.3606497904988085	-0.3458308648896444	0.46886953197217274	0.4467364770907305	-0.07602699143239788	0.4601333188210585	0.4270607044515035	0.1721923088562819	0.41880381339098327	0.4535986554872511	0.28830506804787154	0.4371209507257479	0.42870419910333557	0.2929019930594924	0.4655797290667791	0.43946502997232667	0.2917756445860065	0.06626934668966468	0.43304081365011377	-0.3481089124780386	0.025438970028386104	0.5219647030070635	-0.09328834471118098	0.01994189681344987	0.563194710760204	0.1525899259669808	0.05920570515122772	0.5394667459812841	0.24927384133423705	0.042669309165892115	0.5304005333605585	0.2615184960276212	0.009158222641110174	0.5914137761111061	0.2699928642152159
181	3.0677966101694913	0.3680983299112342	0.4880317912218528	0.13755957614905376	0.3805237177340842	0.6806737038455217	0.5320794086927282	0.37564094740949466	0.7896345000347135	0.9469543357697133	0.3248229542436619	0.6362424352494728	1.0109694617842029	0.3891657139607563	0.6269245548830594	0.9959918895080128	0.36337714463978577	0.887570111797297	0.9929737096807861	0.1325703307914219	0.5343193813954489	0.144171645853571	0.1531914541194452	0.7132746274809705	0.5465985979570898	0.19017627791232897	0.8212011400793553	0.9444447641118179	0.160553383699305	0.609657885513021	0.9819029724027049	0.10815156605104927	0.6853518444790518	0.9788128546847351	0.21279857310788486	0.8648731086560705	0.9900662454864612	0.2372665159090682	0.39332470665241	-0.4159401702154954	0.2108163159920168	0.18242013367564425	-0.6613265399350319	0.2044282716819709	0.2041104182763328	-0.4856805817411077	0.4097271924202466	0.36146142133430414	-0.34246643884725403	0.4688851141901916	0.44675262164731155	-0.07598377499258858	0.4601136020642904	0.42697219471647585	0.17217230572624345	0.4136584975436674	0.44176599946169365	0.2862220459946186	0.43729248844618474	0.42815928286819244	0.2958639071848857	0.4656120455399966	0.4393788773346521	0.29156821342853945	0.0663731605197248	0.433237362005191	-0.3482588399907617	0.025489021721625104	0.5217943011316043	-0.09322964674277608	0.02315960542649588	0.5485610872052245	0.15100841842094778	0.055167692611115024	0.5274232569192536	0.24776271418549212	0.038749974253695106	0.5170297585628841	0.25976568691977014	0.009320282713789409	0.5913534090144887	0.2699282780042405
182	3.0847457627118646	0.3664206045253015	0.5024805613096747	0.13897586315673244	0.380140008633245	0.6812294385711786	0.5402421930199173	0.37836660260482063	0.8076507870395776	0.9528433789686673	0.3246076154525099	0.6373863084734266	1.0073443968489089	0.38911863245469336	0.6270647213763766	0.995931289194887	0.3635001648300378	0.8880096921916624	0.9931916051365858	0.13239237483385663	0.534529982057287	0.14410811382342395	0.15413877811911617	0.7159679498273234	0.5515935100523292	0.191625973133442	0.8240592733236427	0.9502937956501172	0.16515921773287923	0.6115912974115177	0.9826530055695601	0.1081749474984444	0.6854850913972383	0.9788696125088822	0.21311803993000972	0.8659358300503865	0.9903725903776679	0.23730771610119616	0.39342203872203185	-0.4159467192339591	0.2107553746934035	0.18251408887200754	-0.6613050484793429	0.20442758025007446	0.20403566544859675	-0.4856981859701053	0.41013091817110237	0.3611181243806249	-0.34211544671138744	0.4688954479968027	0.44673355817575466	-0.07597947932974813	0.4601504256124775	0.42694259505295806	0.17213613673692174	0.4136742716395186	0.44212752379515513	0.2863657141287967	0.43729444154396835	0.4283755445151733	0.2959346783739389	0.4655960181558346	0.43943242785362024	0.29161039244625475	0.06642455393387513	0.43330032045371797	-0.3483036609730547	0.02545091040697859	0.5218641630817422	-0.09324401273116736	0.023240525742038748	0.5487239913401859	0.1513239077073123	0.05589185160355439	0.5296107223807831	0.25172109627280836	0.03868201129375648	0.517240953386844	0.2600941433543743	0.009071286083587125	0.5912382673947721	0.27013757630123236
183	3.1016949152542375	0.3716033438453531	0.514582607361357	0.1398079368290646	0.38074327971272853	0.6797898644213269	0.5362261582782548	0.38034021288319386	0.7904949491097334	0.9472235323915751	0.32480855877122683	0.6365774013370442	1.0109891331770602	0.38913389353707034	0.6270351352305072	0.9959991453945268	0.3635350603171413	0.8876473133532988	0.9929788047347989	0.13238563583244514	0.5347321559257002	0.14418810073909147	0.15310837429616375	0.713274792056724	0.5465925850147413	0.19164112493634586	0.8239788003595504	0.9502345479502157	0.16522791360327804	0.6113733801566938	0.9826329625336703	0.10819940806504005	0.6852081387929894	0.978802560495889	0.21269165555672498	0.864333433955027	0.9900484095510756	0.2373137263159408	0.39336814341714077	-0.4159406164954454	0.2107879309533696	0.18242730173563673	-0.6613448785275858	0.20434494240325032	0.20393515964049105	-0.48568213854829595	0.4101489022406409	0.36110421346576177	-0.34212483184744136	0.46894760227575544	0.44675416865720924	-0.07601890713162245	0.4601352864975135	0.4269202870705388	0.1721186277232879	0.413704564856914	0.4421090406808542	0.2863712258672386	0.4373055255641541	0.42832952112532974	0.29578433787525055	0.4655916318934823	0.4395613868778031	0.2916229146118081	0.06639982258182346	0.43331012038953876	-0.34830971960924345	0.025428083015188153	0.5217526001807162	-0.09336178651823546	0.023236050883116317	0.5487107588042522	0.1512619489450932	0.055936224902386256	0.529555885368815	0.251780092782503	0.03874877881900652	0.5171426170080623	0.26001419720270164	0.009050898642384937	0.5907974927006824	0.27031257829953925
184	3.1186440677966103	0.3716284121946087	0.5145735367612069	0.13978320894022794	0.3801490437942311	0.6811483422142057	0.5404319074840186	0.3736961966565312	0.8070917707904183	0.952718822530802	0.3248528291029597	0.6363088055321098	1.0109467827301033	0.3893778048791878	0.626172908244599	0.9996738954522443	0.36343477003990704	0.8879839576907185	0.9931573951483281	0.12958818880380157	0.5492241081955986	0.1457487060199649	0.15420639747738138	0.7159446916891612	0.5517400068423632	0.1872624303724286	0.8383102172081887	0.9498532069324488	0.16023678474584632	0.6107605290127729	0.9781159691932824	0.10808637734162072	0.685563820083142	0.9788561055268489	0.21290074133765005	0.8650686078613089	0.9900784981355487	0.23708687519996574	0.39304143351729065	-0.41949740650864314	0.2108091951137736	0.18253302993568662	-0.6613534007707582	0.20434793605246973	0.2039277328038574	-0.48570794783774673	0.4098673075744583	0.3608674710085093	-0.34573348739659177	0.4689145223887744	0.44672759455952255	-0.07594604458567507	0.4591393504259328	0.42541828426985995	0.1687010943787549	0.41362193853034784	0.4420244826960371	0.2861344261094833	0.43723088987467706	0.4283349977059934	0.29579990204218654	0.4643824688078273	0.45327556869768265	0.29369025507402075	0.06638870444440344	0.43317206316870493	-0.3482162995849877	0.0254211055438393	0.5218374392503301	-0.09337304615918897	0.019413120290539	0.5355428269914257	0.15008918361523188	0.05917713145002852	0.5395159584713157	0.24944305651580834	0.038749254936498605	0.5174416462225313	0.26008333661518074	0.005255526027982856	0.5771077262412247	0.2686389220812935
